<?xml version="1.0" encoding="UTF-8"?>
<svg width="20px" height="20px" viewBox="0 0 20 20" version="1.1" xmlns="http://www.w3.org/2000/svg" xmlns:xlink="http://www.w3.org/1999/xlink">
        <g transform="translate(0.000000, 1.000000)" fill="#000">
            <path id="flor-1" d="M11.9094491,0.461179779 L18.6435009,3.57371816 C19.267371,3.86207643 19.5393571,4.6015836 19.2509988,5.22545367 C19.1475877,5.44918603 18.9800678,5.63717145 18.7696803,5.76557368 L12.3510769,9.68293106 C10.9578694,10.5332238 9.20619697,10.5332238 7.81298942,9.68293106 L1.39438603,5.76557368 C0.807727721,5.40752846 0.622400195,4.64169493 0.980445414,4.05503662 C1.10884764,3.84464915 1.29683306,3.67712924 1.52056542,3.57371816 L8.25461727,0.461179779 C9.41396934,-0.0746830113 10.750097,-0.0746830113 11.9094491,0.461179779 Z"></path>
            <path id="flor-2" opacity="0.3" d="M11.9094491,4.25065346 L18.6435009,7.36319184 C19.267371,7.65155011 19.5393571,8.39105729 19.2509988,9.01492736 C19.1475877,9.23865972 18.9800678,9.42664514 18.7696803,9.55504736 L12.3510769,13.4724047 C10.9578694,14.3226975 9.20619697,14.3226975 7.81298942,13.4724047 L1.39438603,9.55504736 C0.807727721,9.19700214 0.622400195,8.43116862 0.980445414,7.84451031 C1.10884764,7.63412283 1.29683306,7.46660292 1.52056542,7.36319184 L8.25461727,4.25065346 C9.41396934,3.71479067 10.750097,3.71479067 11.9094491,4.25065346 Z"></path>
            <path id="flor-3" opacity="0.15" d="M11.9094491,8.04012715 L18.6435009,11.1526655 C19.267371,11.4410238 19.5393571,12.180531 19.2509988,12.804401 C19.1475877,13.0281334 18.9800678,13.2161188 18.7696803,13.344521 L12.3510769,17.2618784 C10.9578694,18.1121712 9.20619697,18.1121712 7.81298942,17.2618784 L1.39438603,13.344521 C0.807727721,12.9864758 0.622400195,12.2206423 0.980445414,11.633984 C1.10884764,11.4235965 1.29683306,11.2560766 1.52056542,11.1526655 L8.25461727,8.04012715 C9.41396934,7.50426436 10.750097,7.50426436 11.9094491,8.04012715 Z"></path>
        </g>
</svg>
