<svg xmlns="http://www.w3.org/2000/svg" width="100" viewBox="0 0 245.21 44.85">
    <defs>
        <style>
            .charset{fill:#000;}
        </style>
    </defs>
    <g id="b-ahead" data-name="b-ahead">
        <path class="charset" d="M238.26,4.35V.82h-1.43V.31h3.43V.82h-1.43V4.35Zm2.71,0v-4h.62l1.48,3.16h0L244.59.31h.62v4h-.52V1.29h0L243.27,4.2h-.37l-1.38-2.91h0V4.35Z"/>
        <path class="charset" d="M8.58,38.79H8.41V44.3H0V0H8.55V17.55h.18c1.79-3.72,5.36-5.89,10-5.89,8.14,0,13.15,6.24,13.15,16.49s-5,16.52-13.12,16.52C14,44.68,10.37,42.51,8.58,38.79ZM8.5,28.18c0,5.77,2.93,9.58,7.32,9.58s7.27-3.75,7.27-9.61-2.87-9.58-7.27-9.58S8.53,22.41,8.5,28.18Z"/>
        <path class="charset" d="M38.14,31.08V23.61h14.1v7.47Z"/>
        <path class="charset" d="M60.64,35c0-5.86,4.48-9.17,12.71-9.67l8.06-.5V22.71c0-3.11-2.14-4.8-5.65-4.8-3.11,0-5.27,1.64-5.68,4H62.25c.23-6.15,5.8-10.4,13.86-10.4,8.29,0,13.71,4.25,13.71,10.69V44.3H81.56v-5h-.18c-1.76,3.37-5.74,5.36-9.87,5.36C65.3,44.68,60.64,40.78,60.64,35Zm20.77-2.55V30.09l-6.77.47c-3.57.23-5.48,1.64-5.48,4s2,3.87,5.13,3.87C78.25,38.44,81.41,36,81.41,32.46Z"/>
        <path class="charset" d="M95.8,0h8.41V17.81h.18c1.82-4.07,5.51-6.24,10.43-6.24,7.15,0,11.63,4.63,11.63,12.1V44.3h-8.55V25.46c0-4.22-2.46-6.77-6.53-6.77s-7,3-7,7.29V44.3H95.8Z"/>
        <path class="charset" d="M161.33,34.45c-.94,6.24-6.77,10.4-14.62,10.4-9.81,0-15.82-6.3-15.82-16.55s6-16.82,15.5-16.82c9.29,0,15.21,6.21,15.21,16v2.64H139.33v.53c0,4.66,3,7.79,7.53,7.79,3.22,0,5.77-1.52,6.59-4Zm-21.91-9.61h13.92c-.15-4.22-2.9-7-6.86-7S139.71,20.71,139.42,24.84Z"/>
        <path class="charset" d="M164.88,35c0-5.86,4.48-9.17,12.71-9.67l8.06-.5V22.71c0-3.11-2.14-4.8-5.65-4.8-3.11,0-5.27,1.64-5.68,4h-7.82c.23-6.15,5.8-10.4,13.86-10.4,8.29,0,13.71,4.25,13.71,10.69V44.3H185.8v-5h-.18c-1.76,3.37-5.74,5.36-9.87,5.36C169.54,44.68,164.88,40.78,164.88,35Zm20.77-2.55V30.09l-6.77.47c-3.57.23-5.48,1.64-5.48,4s2,3.87,5.13,3.87C182.49,38.44,185.65,36,185.65,32.46Z"/>
        <path class="charset" d="M198.6,28.13c0-10.11,5.21-16.46,13.24-16.46,4.66,0,8.26,2.31,9.87,5.89h.18V0h8.55V44.3H222V38.79h-.15c-1.58,3.54-5.3,5.89-10,5.89C203.79,44.68,198.6,38.29,198.6,28.13Zm8.76,0c0,5.92,2.84,9.61,7.29,9.61s7.29-3.75,7.29-9.58-2.87-9.61-7.29-9.61S207.36,22.29,207.36,28.15Z"/>
    </g>
</svg>
